<svg viewBox="0 0 412 412" xmlns="http://www.w3.org/2000/svg" fill="none">
  <style>
		.stroke { stroke: #ececec; stroke-width: 2px }
		.fill { fill: #ececec }
  </style>
  <path fill="#fafafa" d="M0 0h412v412H0z"/>
  <ellipse cx="134.8" cy="27.7" rx="9.7" ry="9.5" class="stroke"/>
  <path d="M68 7v10M18 74l10-8 9 10-10 8zm200-26 16 11m117-34v21h-13l13-21Zm-24 81 4 19m-97-3-8 13 10 12 8-14-10-10Z" class="stroke"/>
  <circle cx="148.4" cy="100.9" class="stroke" r="3.8"/>
  <path d="m76 155-1 20 15-13-14-7ZM8 138l10-2" class="stroke"/>
  <path class="fill" d="m173 189 7 2-2 7-6-2zm128-2-4 5-3-5h7Z"/>
  <path d="M375 181c-4-13 15-17 18-5m-88 72 6 9-5 9-10 1-6-8 4-10Zm-207 1 14-13m62 35h17v-17M44 281l9-2 4 22-9 2z" class="stroke"/>
  <path d="m129 339 2 6h7l-3-7-6 1Z" class="fill"/>
  <circle cx="20" cy="377.7" class="fill" r="3.1"/>
  <path d="m227 363 9 10 7-11-16 1Z" class="stroke"/>
  <path d="m244 295-1 6 6-1-5-5Z" class="fill"/>
  <path d="m327 324 15 14" class="stroke"/>
  <circle cx="362.1" cy="367.1" class="stroke" r="6"/>
  <path d="m381 257-1 10 3-1-1 11 5-14-3 1 2-8-6 1Z" class="fill"/>
</svg>
