<?xml version="1.0" standalone="no"?>
<!DOCTYPE svg PUBLIC "-//W3C//DTD SVG 20010904//EN"
 "http://www.w3.org/TR/2001/REC-SVG-20010904/DTD/svg10.dtd">
<svg version="1.0" xmlns="http://www.w3.org/2000/svg"
 width="700.000000pt" height="700.000000pt" viewBox="0 0 700.000000 700.000000"
 preserveAspectRatio="xMidYMid meet">
<metadata>
Created by potrace 1.14, written by Peter Selinger 2001-2017
</metadata>
<g transform="translate(0.000000,700.000000) scale(0.100000,-0.100000)"
fill="#000000" stroke="none">
<path d="M3528 5443 c-9 -21 -73 -162 -143 -313 -109 -236 -167 -363 -350
-765 -33 -73 -76 -166 -120 -260 -53 -115 -75 -164 -75 -168 0 -4 260 -244
374 -347 22 -19 67 -61 101 -92 34 -32 73 -66 87 -77 l25 -20 151 237 c84 130
156 244 162 252 6 8 112 174 235 368 l225 353 -325 434 c-179 239 -327 435
-329 435 -1 0 -10 -17 -18 -37z"/>
<path d="M4534 4967 c-142 -224 -452 -714 -530 -837 -29 -47 -57 -89 -62 -95
-4 -5 -29 -46 -56 -90 -27 -44 -70 -111 -94 -150 -75 -116 -114 -178 -147
-230 -55 -87 -113 -178 -157 -247 l-43 -68 -29 25 c-25 22 -198 179 -236 215
-9 8 -94 87 -190 175 -96 88 -180 164 -186 170 -24 23 -208 191 -219 200 -6 6
-32 29 -57 53 l-45 43 -63 -98 c-35 -54 -106 -163 -158 -243 -52 -80 -114
-176 -139 -215 -25 -38 -105 -162 -178 -275 -196 -302 -293 -450 -383 -590
-45 -69 -139 -215 -211 -325 -71 -110 -177 -274 -236 -365 -58 -91 -155 -239
-214 -330 -60 -91 -107 -167 -104 -169 6 -8 5363 -7 5363 1 0 3 -50 127 -111
275 -61 147 -149 360 -195 473 -86 207 -112 271 -145 347 -11 24 -19 45 -19
48 0 3 -9 24 -19 48 -11 23 -45 105 -77 182 -31 77 -91 221 -132 320 -41 99
-193 468 -338 820 -146 352 -273 660 -284 685 -11 25 -53 127 -95 228 -41 101
-78 189 -82 197 -5 9 -48 -50 -129 -178z"/>
<path d="M1126 4078 c-18 -44 -124 -285 -141 -323 -16 -35 -38 -84 -95 -215
-23 -52 -48 -108 -55 -125 -67 -149 -117 -262 -119 -270 -1 -5 -15 -36 -29
-69 -15 -32 -27 -60 -27 -62 0 -2 -15 -36 -34 -76 -18 -40 -81 -181 -139 -313
-229 -523 -370 -842 -393 -893 -13 -29 -24 -55 -24 -58 0 -5 -42 -99 -61 -136
-7 -15 18 -16 331 -17 381 0 348 -6 400 81 23 40 256 404 370 578 23 35 159
246 201 312 239 374 395 614 401 616 5 2 8 8 8 12 0 5 34 62 77 127 42 65 96
148 119 185 l43 67 -202 154 c-443 336 -604 457 -610 457 -4 0 -13 -15 -21
-32z"/>
<path d="M5600 3135 c0 -4 23 -62 51 -129 28 -66 66 -157 84 -201 37 -91 292
-703 365 -875 26 -63 74 -178 106 -255 31 -77 61 -144 65 -149 8 -9 690 -16
716 -8 7 2 11 7 8 11 -2 4 -6 18 -9 32 -3 13 -73 242 -156 509 -83 267 -152
490 -153 495 -4 16 -121 400 -123 403 -1 2 -8 5 -16 6 -34 7 -102 19 -198 36
-58 10 -170 30 -250 44 -80 14 -163 28 -185 32 -22 3 -47 7 -55 9 -8 3 -55 12
-105 20 -49 8 -102 18 -117 21 -16 3 -28 3 -28 -1z"/>
</g>
</svg>
